# xmcd
#
# Track frame offsets:
#	150
#	20317
#	36832
#	58508
#	78655
#	96226
#	114055
#	134431
#	153722
#	169367
#
# Disc length: 2519 seconds
# Revision: 0
# Processed by: cddbd v1.5.2PL0 Copyright (c) Steve Scherf et al.
# Submitted via: dBpowerAMP V12.0
#
DISCID=7e09d50a
DTITLE=Special Consensus and Friends - Country Boy: A Bluegrass Tribute to John Denver
DYEAR=2014
DGENRE=Country
TTITLE0=Wild Montana Skies
TTITLE1=Take Me Home, Country Roads
TTITLE2=Back Home Again
TTITLE3=Thank God I'm a Country Boy
TTITLE4=Poems, Prayers and Promises
TTITLE5=Matthew
TTITLE6=Sunshine On My Shoulders
TTITLE7=Eagles and Horses
TTITLE8=This Old Guitar
TTITLE9=Rocky Mountain High
EXTD=
EXTT0=
EXTT1=
EXTT2=
EXTT3=
EXTT4=
EXTT5=
EXTT6=
EXTT7=
EXTT8=
EXTT9=
PLAYORDER=
